PathFileType	4	(X/Y/Z)	/Users/itak/Documents/Research/Walk-IL/dataset/trc/00268_00010.trc
DataRate	CameraRate	NumFrames	NumMarkers	Units	OrigDataRate	OrigDataStartFrame	OrigNumFrames
100.000000	100.000000	4	53	mm	100.000000	121	485
Frame#	Time	RPSI			LPSI			L3			STRN			T10			C7			CLAV			RBAK			LBAK			LSHO			LUPA			LAEL			LAOL			LWTS			LWPS			LFRA			LIFD			LHPS			LHTS			RSHO			RUPA			RAEL			RAOL			RWTS			RWPS			RFRA			RIFD			RHTS			RHPS			RBHD			LFHD			RFHD			LBHD			LHIP			RHIP			RASI			LKNE			LANK			LTIP			LTOE			LMT1			LMT5			LHEE			RKNE			RTHI			RANK			RTIP			RTOE			RMT1			RMT5			RHEE			LTHI			LASI			
		X1	Y1	Z1	X2	Y2	Z2	X3	Y3	Z3	X4	Y4	Z4	X5	Y5	Z5	X6	Y6	Z6	X7	Y7	Z7	X8	Y8	Z8	X9	Y9	Z9	X10	Y10	Z10	X11	Y11	Z11	X12	Y12	Z12	X13	Y13	Z13	X14	Y14	Z14	X15	Y15	Z15	X16	Y16	Z16	X17	Y17	Z17	X18	Y18	Z18	X19	Y19	Z19	X20	Y20	Z20	X21	Y21	Z21	X22	Y22	Z22	X23	Y23	Z23	X24	Y24	Z24	X25	Y25	Z25	X26	Y26	Z26	X27	Y27	Z27	X28	Y28	Z28	X29	Y29	Z29	X30	Y30	Z30	X31	Y31	Z31	X32	Y32	Z32	X33	Y33	Z33	X34	Y34	Z34	X35	Y35	Z35	X36	Y36	Z36	X37	Y37	Z37	X38	Y38	Z38	X39	Y39	Z39	X40	Y40	Z40	X41	Y41	Z41	X42	Y42	Z42	X43	Y43	Z43	X44	Y44	Z44	X45	Y45	Z45	X46	Y46	Z46	X47	Y47	Z47	X48	Y48	Z48	X49	Y49	Z49	X50	Y50	Z50	X51	Y51	Z51	X52	Y52	Z52	X53	Y53	Z53	

122	1.21	721.51318359375	979.3424072265625	120.0333251953125	706.888916015625	959.2392578125	-52.86831665039062	730.7855834960938	1051.149291992188	34.65816879272461	991.0043334960938	1228.654296875	7.253813743591309	725.397705078125	1169.20751953125	39.5827522277832	773.545166015625	1412.331420898438	17.23055839538574	928.4281616210938	1328.6796875	9.818558692932129	729.152587890625	1277.9951171875	102.2945861816406	746.5767822265625	1373.775512695312	-84.37270355224609	832.45263671875	1379.988037109375	-145.8455200195312	795.4675903320312	1261.064331054688	-213.9667053222656	792.6292114257812	1058.82275390625	-228.097900390625	736.3758544921875	1046.853515625	-162.0950622558594	894.46142578125	851.1817626953125	-191.6468505859375	850.6515502929688	832.4660034179688	-246.2931213378906	809.691650390625	956.122314453125	-237.3332977294922	917.9676513671875	664.4867553710938	-189.3974151611328	864.3338012695312	744.9609985351562	-241.4429321289062	923.56201171875	754.9071655273438	-215.3343963623047	859.6365356445312	1391.77392578125	169.2843933105469	863.1824340820312	1335.593872070312	239.6122131347656	856.40478515625	1069.522094726562	295.0416259765625	802.1987915039062	1060.077880859375	216.6294708251953	955.34716796875	853.1443481445312	233.5171508789062	924.4404296875	847.232666015625	312.3845825195312	883.0830078125	1003.827209472656	306.283447265625	975.7919311523438	669.6878051757812	235.7020416259766	995.4148559570312	741.0018310546875	248.0019378662109	955.8889770507812	738.0023193359375	305.9520568847656	779.7835693359375	1551.00439453125	88.64611053466797	928.6069946289062	1629.251098632812	-41.28262710571289	935.52685546875	1623.828857421875	51.32513809204102	771.7739868164062	1549.093627929688	-59.24987411499023	771.7377319335938	916.2307739257812	-153.7436828613281	834.4771728515625	943.797119140625	214.4317779541016	949.7901000976562	954.3753051757812	134.4072265625	1005.002624511719	495.8008117675781	-172.9770355224609	728.3466796875	141.2593383789062	-115.4987182617188	870.4457397460938	311.6070251464844	-157.7282867431641	915.3826293945312	48.49942398071289	-73.60089111328125	853.823486328125	72.07263946533203	-30.59099769592285	833.6232299804688	81.86660003662109	-137.5751037597656	692.23779296875	161.4093475341797	-53.37928771972656	910.9190673828125	475.130615234375	156.396484375	919.1700439453125	737.59716796875	198.5728912353516	889.6105346679688	36.360595703125	103.3718643188477	929.5025634765625	354.0035095214844	131.6790008544922	1080.128662109375	34.20132446289062	29.46878433227539	1017.747985839844	33.14223861694336	-3.008008241653442	995.1764526367188	26.0446891784668	111.8482131958008	833.7335815429688	34.62925338745117	58.02423858642578	939.1944580078125	624.3648681640625	-175.7131652832031	911.1040649414062	942.2595825195312	-114.0010833740234	
123	1.22	718.9112548828125	979.09521484375	119.7234725952148	704.4672241210938	959.0690307617188	-53.24446487426758	728.1051635742188	1050.83984375	34.28871536254883	988.10546875	1228.81640625	7.214961528778076	722.680419921875	1168.74853515625	39.28226089477539	770.2652587890625	1411.993408203125	17.14847755432129	925.306884765625	1328.7578125	9.793927192687988	726.0645751953125	1277.498291015625	102.076171875	743.55712890625	1373.557983398438	-84.55995178222656	829.3595581054688	1379.96484375	-145.9242706298828	792.5218505859375	1261.060668945312	-214.1396026611328	789.5758666992188	1058.826904296875	-228.2782287597656	733.46728515625	1046.898193359375	-162.2177886962891	890.4015502929688	850.470947265625	-192.0606384277344	846.3917236328125	831.9839477539062	-246.6017608642578	806.1646728515625	955.926025390625	-237.6047058105469	912.620361328125	663.6101684570312	-189.5366363525391	859.4981079101562	744.400390625	-241.7050628662109	918.7891845703125	753.9420166015625	-215.6122436523438	856.1728515625	1391.530517578125	169.2793426513672	859.6875610351562	1335.34765625	239.5927886962891	853.0269165039062	1069.370483398438	295.1260681152344	799.3543090820312	1059.723754882812	216.3497161865234	952.4188232421875	852.783447265625	234.84375	920.8963012695312	847.1040649414062	313.4660949707031	879.6719970703125	1003.665344238281	306.6902160644531	972.7279663085938	669.3204956054688	237.7413330078125	992.27001953125	740.6439819335938	249.9700622558594	952.2753295898438	737.8433837890625	307.5885314941406	776.8836059570312	1550.931640625	89.04560852050781	925.719482421875	1629.053466796875	-40.9266357421875	932.7781372070312	1623.386596679688	51.66018295288086	768.6438598632812	1549.39599609375	-58.83050537109375	769.4270629882812	915.9716186523438	-154.0545654296875	832.3880615234375	943.5851440429688	214.1568756103516	947.1055908203125	954.2713623046875	134.2439727783203	1000.039855957031	494.2049255371094	-172.7567138671875	713.5225830078125	148.3946838378906	-112.9584579467773	860.7505493164062	314.1094665527344	-156.3545227050781	897.4346313476562	49.59360504150391	-70.41841888427734	836.9739379882812	76.17741394042969	-27.79128456115723	816.8095703125	85.46644592285156	-134.7598571777344	678.2345581054688	170.1253051757812	-50.94113540649414	909.388916015625	475.1163635253906	156.3052978515625	916.8140869140625	737.5303344726562	198.4417266845703	889.6482543945312	36.39716720581055	103.3661346435547	928.4696044921875	354.1226806640625	131.5740203857422	1080.173583984375	34.09860229492188	29.46382331848145	1017.784484863281	33.17446517944336	-3.041296720504761	995.2091064453125	26.06756401062012	111.8237838745117	833.7755126953125	34.57194519042969	58.01726913452148	935.4680786132812	623.3744506835938	-175.5779418945312	908.7266235351562	942	-114.1749649047852	
124	1.23	716.2120361328125	978.8163452148438	119.3705749511719	702.0040283203125	958.8754272460938	-53.67319488525391	725.3748779296875	1050.50537109375	33.84888076782227	985.12060546875	1228.959106445312	7.216176986694336	719.8527221679688	1168.263916015625	38.89328765869141	766.8809204101562	1411.628295898438	17.00108528137207	922.0894165039062	1328.805786132812	9.776329040527344	722.8295288085938	1276.97314453125	101.7555236816406	740.5106201171875	1373.318237304688	-84.84192657470703	826.247802734375	1379.910522460938	-146.0395660400391	789.629638671875	1261.037963867188	-214.3826904296875	786.6592407226562	1058.808227539062	-228.6148071289062	730.5901489257812	1046.913452148438	-162.5738830566406	886.30322265625	849.677734375	-192.4297180175781	842.2948608398438	831.5206909179688	-247.0444641113281	802.812744140625	955.7522583007812	-238.0207672119141	907.0496826171875	662.6316528320312	-189.7771759033203	854.73291015625	743.8525390625	-242.1732788085938	913.974365234375	752.8982543945312	-215.8338623046875	852.5355224609375	1391.264892578125	169.2385406494141	855.9765014648438	1335.079345703125	239.5403747558594	849.4449462890625	1069.177368164062	295.1674194335938	796.3547973632812	1059.342163085938	216.0053100585938	949.4048461914062	852.4703979492188	236.1089477539062	917.2406616210938	846.9739990234375	314.4672241210938	876.0738525390625	1003.482055664062	307.0433654785156	969.6937255859375	669.0140991210938	239.6758575439453	989.1216430664062	740.35986328125	251.8714447021484	948.592529296875	737.7040405273438	309.1165466308594	773.869873046875	1550.833618164062	89.39947509765625	922.7415161132812	1628.83251953125	-40.57939529418945	929.9122924804688	1622.922119140625	51.98461532592773	765.4274291992188	1549.677978515625	-58.46842956542969	767.10009765625	915.6914672851562	-154.3851776123047	830.022705078125	943.366455078125	213.8684997558594	944.3543701171875	954.15283203125	134.0961303710938	994.5189819335938	492.3832092285156	-172.5510711669922	698.5289916992188	155.4430541992188	-110.6145935058594	850.6326293945312	316.4731750488281	-155.0798034667969	879.1838989257812	50.84391784667969	-67.42513275146484	819.729248046875	80.07322692871094	-24.99242401123047	799.73193359375	89.06299591064453	-132.0795135498047	664.0972290039062	178.6932067871094	-48.69637680053711	907.920654296875	475.0980529785156	156.1991729736328	914.40966796875	737.4642944335938	198.3275756835938	889.6873779296875	36.43961715698242	103.3559417724609	927.519775390625	354.2223510742188	131.4503936767578	1080.229614257812	34.00581741333008	29.44491767883301	1017.817687988281	33.19214248657227	-3.075243234634399	995.243408203125	26.08958053588867	111.7982025146484	833.8131713867188	34.5285758972168	58.01253890991211	931.3502807617188	622.1928100585938	-175.4610290527344	906.33544921875	941.699462890625	-114.3505477905273	
125	1.24	713.4108276367188	978.51123046875	118.972900390625	699.4853515625	958.65283203125	-54.14738845825195	722.5902099609375	1050.14892578125	33.33547210693359	982.0464477539062	1229.074829101562	7.258760929107666	716.9047241210938	1167.756225585938	38.41632843017578	763.4006958007812	1411.242309570312	16.78305625915527	918.7776489257812	1328.816650390625	9.768176078796387	719.443603515625	1276.42236328125	101.332633972168	737.4246826171875	1373.05126953125	-85.21267700195312	823.1231689453125	1379.8212890625	-146.1886901855469	786.7904052734375	1260.989868164062	-214.6945495605469	783.8654174804688	1058.760375976562	-229.1004638671875	727.7333984375	1046.89453125	-163.1492004394531	882.1675415039062	848.8042602539062	-192.7523193359375	838.3561401367188	831.0734252929688	-247.6140747070312	799.6285400390625	955.5970458984375	-238.5711822509766	901.278564453125	661.5618896484375	-190.1285400390625	850.0375366210938	743.3130493164062	-242.8324890136719	909.1234130859375	751.7821044921875	-216.0062408447266	848.7271118164062	1390.976440429688	169.1609954833984	852.0527954101562	1334.788818359375	239.4550323486328	845.660400390625	1068.937866210938	295.158447265625	793.1973876953125	1058.932250976562	215.5987854003906	946.3032836914062	852.2081909179688	237.3059387207031	913.4733276367188	846.841796875	315.3801879882812	872.2889404296875	1003.277099609375	307.33984375	966.6876220703125	668.7698364257812	241.4882507324219	985.96923828125	740.1511840820312	253.6898193359375	944.8515625	737.5838012695312	310.5266723632812	770.7433471679688	1550.702270507812	89.70616149902344	919.6669311523438	1628.586181640625	-40.24614715576172	926.9230346679688	1622.439331054688	52.293701171875	762.1224365234375	1549.922485351562	-58.16446304321289	764.7354736328125	915.381591796875	-154.7283477783203	827.43310546875	943.1487426757812	213.5657196044922	941.5365600585938	954.0159912109375	133.9590454101562	988.4356689453125	490.3537292480469	-172.3658752441406	683.4207153320312	162.3376617431641	-108.4505157470703	840.1271362304688	318.6849670410156	-153.9027862548828	860.7413330078125	52.25857925415039	-64.65682983398438	802.17041015625	83.71511077880859	-22.21056938171387	782.4576416015625	92.60152435302734	-129.5319061279297	649.8748168945312	187.0463256835938	-46.63296890258789	906.5120849609375	475.0780334472656	156.0790405273438	911.9703369140625	737.4253540039062	198.2082214355469	889.7258911132812	36.48628616333008	103.3408966064453	926.6600952148438	354.2977905273438	131.308349609375	1080.297973632812	33.9344482421875	29.40724182128906	1017.846130371094	33.19212341308594	-3.108042001724243	995.275146484375	26.10929679870605	111.7733612060547	833.84765625	34.4968376159668	58.00791931152344	926.825439453125	620.8350219726562	-175.3628540039062	903.9159545898438	941.3525390625	-114.5314025878906	
